<svg xmlns="http://www.w3.org/2000/svg" xmlns:xlink="http://www.w3.org/1999/xlink" viewBox="0 0 712.53 263.09"><defs><style>.cls-1{fill:none;stroke:#46bae1;stroke-miterlimit:10;stroke-width:3px;}.cls-2{fill:url(#radial-gradient);}.cls-3{fill:url(#radial-gradient-2);}.cls-4{fill:url(#radial-gradient-3);}.cls-5{fill:#46bae1;}.cls-6{fill:url(#radial-gradient-4);}.cls-7{fill:url(#radial-gradient-5);}.cls-8{fill:url(#radial-gradient-6);}.cls-9{fill:url(#radial-gradient-7);}.cls-10{fill:url(#New_Gradient_Swatch);}.cls-11{fill:url(#New_Gradient_Swatch-2);}.cls-12{fill:url(#New_Gradient_Swatch-3);}.cls-13{fill:url(#New_Gradient_Swatch-4);}.cls-14{fill:url(#New_Gradient_Swatch-5);}</style><radialGradient id="radial-gradient" cx="32.69" cy="135.68" r="7.74" gradientUnits="userSpaceOnUse"><stop offset="0" stop-color="#2484c6"/><stop offset="0.11" stop-color="#2484c6" stop-opacity="0.97"/><stop offset="0.26" stop-color="#2484c6" stop-opacity="0.87"/><stop offset="0.43" stop-color="#2484c6" stop-opacity="0.72"/><stop offset="0.63" stop-color="#2484c6" stop-opacity="0.51"/><stop offset="0.83" stop-color="#2484c6" stop-opacity="0.24"/><stop offset="1" stop-color="#2484c6" stop-opacity="0"/></radialGradient><radialGradient id="radial-gradient-2" cx="63.74" cy="223.16" r="8.92" gradientUnits="userSpaceOnUse"><stop offset="0" stop-color="#2484c6"/><stop offset="0.05" stop-color="#2484c6" stop-opacity="0.8"/><stop offset="0.1" stop-color="#2484c6" stop-opacity="0.61"/><stop offset="0.16" stop-color="#2484c6" stop-opacity="0.45"/><stop offset="0.22" stop-color="#2484c6" stop-opacity="0.31"/><stop offset="0.3" stop-color="#2484c6" stop-opacity="0.19"/><stop offset="0.38" stop-color="#2484c6" stop-opacity="0.11"/><stop offset="0.49" stop-color="#2484c6" stop-opacity="0.04"/><stop offset="0.63" stop-color="#2484c6" stop-opacity="0.01"/><stop offset="1" stop-color="#2484c6" stop-opacity="0"/></radialGradient><radialGradient id="radial-gradient-3" cx="150.02" cy="248.57" r="7.74" xlink:href="#radial-gradient-2"/><radialGradient id="radial-gradient-4" cx="199.21" cy="289.87" r="961.15" gradientUnits="userSpaceOnUse"><stop offset="0" stop-color="#19ffb9"/><stop offset="0.21" stop-color="#1df8bd"/><stop offset="0.51" stop-color="#29e6c7"/><stop offset="0.86" stop-color="#3dc8d9"/><stop offset="1" stop-color="#46bae1"/></radialGradient><radialGradient id="radial-gradient-5" cx="350.34" cy="170.95" r="7.74" xlink:href="#radial-gradient"/><radialGradient id="radial-gradient-6" cx="377.03" cy="46.13" r="3.87" gradientUnits="userSpaceOnUse"><stop offset="0" stop-color="#2484c6"/><stop offset="1" stop-color="#2484c6" stop-opacity="0"/></radialGradient><radialGradient id="radial-gradient-7" cx="287.88" cy="17.2" r="5.71" xlink:href="#radial-gradient-6"/><linearGradient id="New_Gradient_Swatch" x1="441.62" y1="-128.27" x2="439.72" y2="243.99" gradientUnits="userSpaceOnUse"><stop offset="0" stop-color="#46bae1"/><stop offset="1" stop-color="#19ffa7"/></linearGradient><linearGradient id="New_Gradient_Swatch-2" x1="513.11" y1="-127.9" x2="511.21" y2="244.35" xlink:href="#New_Gradient_Swatch"/><linearGradient id="New_Gradient_Swatch-3" x1="579.84" y1="-127.56" x2="577.94" y2="244.69" xlink:href="#New_Gradient_Swatch"/><linearGradient id="New_Gradient_Swatch-4" x1="638.89" y1="-127.26" x2="636.99" y2="244.99" xlink:href="#New_Gradient_Swatch"/><linearGradient id="New_Gradient_Swatch-5" x1="690.04" y1="-127" x2="688.14" y2="245.25" xlink:href="#New_Gradient_Swatch"/></defs><g id="Layer_2" data-name="Layer 2"><g id="Layer_1-2" data-name="Layer 1"><path class="cls-1" d="M150,170.94h0"/><circle class="cls-2" cx="32.69" cy="135.68" r="7.74"/><circle class="cls-3" cx="63.74" cy="223.16" r="8.92"/><circle class="cls-4" cx="150.02" cy="248.57" r="7.74"/><circle class="cls-5" cx="215.09" cy="136.98" r="117.76"/><circle class="cls-6" cx="221.3" cy="130.49" r="102.2"/><path class="cls-1" d="M286.24,43.16c41-33.79,74.13-53.83,76.92-33.47,2.27,16.57-15.43,43.7-43,74.13-1.92,2.13-3.9,4.27-5.91,6.43q-3.66,3.91-7.52,7.88c-19.58,20.19-42.62,41.29-66.37,61.32a0,0,0,0,1,0,0c-25.06,21.15-50.9,41.11-74.36,57.62-7.33,5.16-14.43,10-21.2,14.4-21.91,14.29-40.34,24.3-52,27.66-57.14,16.48,25.28-55.34,25.28-55.34h0"/><path class="cls-1" d="M97.37,134.24c-41.26,7.88-126.22,26.49-84.76,39.18,13.94,4.27,48.22,4.34,91,1.46,7.69-.51,15.65-1.13,23.82-1.82q11.1-1,22.64-2.11h0c29.37-2.95,60.45-6.88,90.34-11.48a0,0,0,0,0,0,0c29.05-4.46,57-9.56,81.17-15q5.74-1.31,11.19-2.62c45.19-10.95,74.16-23.11,66.69-34.32s-36.66-13.25-73.7-10.88"/><circle class="cls-7" cx="350.34" cy="170.95" r="7.74"/><circle class="cls-8" cx="377.03" cy="46.13" r="3.87"/><circle class="cls-9" cx="287.88" cy="17.2" r="5.71"/><path class="cls-10" d="M482.91,75.7c0,5.68-2.71,11.11-7,13.17-6.84-9.43-20.92-13.3-33.06-13.3s-21.83,3.75-22,9.82c1,7.49,17.95,15.62,31.9,22.08,17.44,8.14,25.45,13.18,25.45,28.42,0,17.69-12.27,31.38-32,31.38-19.12,0-48.31-12.78-48.31-27.51,0-3.48,1.68-9.17,6.84-15,.52,5.17,5.56,13.05,15.63,19a58.18,58.18,0,0,0,28.81,7.88c19.24,0,23.25-11.37,23.63-15.37-.25-6.85-13.17-12.53-27.77-18.86-21.83-9.56-31-16.15-31-28.42,0-9.68,6.07-19,17.05-23.5a47.78,47.78,0,0,1,18.09-3.36c11.23,0,22.21,3.48,32.93,8.26C482.65,73.37,482.91,73.89,482.91,75.7Z"/><path class="cls-11" d="M476.57,196.34a35.58,35.58,0,0,1-.9-9.3c0-7.37,5-26,12.53-44.95,9.42-23.77,13.17-34.23,15-39.91,1.29-4,6.2-12.79,9.3-15.5,5.94.9,12.27,3.49,13.43,5.55C521,96.75,513,112.51,510.54,121.55c1.68-2.84,4-5.94,9.69-11.88,6.33-6.59,12.14-10.21,16.27-10.21,6.59,0,11.24,4,11.24,9.69a57.84,57.84,0,0,1-12,34.87c-6,7.63-16.67,14.34-23.25,14.34-3.1,0-5.69-1.42-6.46-3.36,13.3-7.88,26.22-29.57,30.35-51.66a48.63,48.63,0,0,0-16.66,13.56c-12.27,15.24-13.56,16.79-17.05,24.93-4.91,11-12.91,37.59-19,62.9-.9-.13-1.67-.64-2.45-2.07-1.42-1.55-1.81-2.06-2.58-2.45C477.6,200,476.7,198.4,476.57,196.34Z"/><path class="cls-12" d="M606.5,109.8c-7,14.46-11.76,29.7-11.76,38.49,0,4.78,1,8.13,3.36,9.43a18.53,18.53,0,0,1-8.39,2.32c-4.65,0-7-3.1-7-9.56,0-4.78,1.68-11.75,4.91-20.15-7,15.76-18.34,28.68-26.35,30-6.33-.26-10.72-6.72-10.72-15.63,0-19.24,18.6-45.59,32.55-46.37,3.49.91,9.3,7,9.69,10.21-13.82,2.19-30.74,25-30.74,40.94,0,1.81.64,2.71,1.81,3.1,5-1,11.23-8.27,20.53-23.77,3.62-6.07,8.78-15.75,12.53-23.5C600.56,105.28,606.63,108.12,606.5,109.8Z"/><path class="cls-13" d="M648.47,96.24c8.91,0,13.95,4.65,13.95,12.91,0,7.88-4.91,15.63-9.82,15.63a7.65,7.65,0,0,1-5.81-3.49c5.81-5.29,8.65-10.07,8.65-14.33,0-2.46-1-3.75-3-3.75-3.35,0-9.17,3.62-14,8.91a44.15,44.15,0,0,0-11.36,29.58c0,7,1.55,11.11,4.65,12.53,5-.65,14.33-5.17,22.34-11.11a4.13,4.13,0,0,1,1.29,2.58c-5.68,7.11-16.27,14.47-22.08,15.5-11.37-1-20.54-12.91-20.54-26.47C612.82,115.22,630.39,96.24,648.47,96.24Z"/><path class="cls-14" d="M678,142.35c0,1-.13,2.19-.13,3.35,0,4.4,1,10.34,6,10.34,9.3,0,18.21-9.3,23.63-15.11a17.51,17.51,0,0,1,2.2,2.19c-7.75,10.2-17.7,17.57-25.83,19.37C672,161.2,665,153.07,665,142.73c0-21.18,19.37-46.11,36.42-46.11,3.88.52,7.62,3,11.11,7.37C711.24,125.17,700,133.56,678,142.35Zm1-4.91c13.69-6.85,23.89-17.44,24.54-29.19C694.19,109.54,683.21,121.42,679.08,137.44Z"/></g></g></svg>